<?xml version="1.0" encoding="utf-8"?>
<!-- Generator: Adobe Illustrator 23.0.2, SVG Export Plug-In . SVG Version: 6.00 Build 0)  -->
<svg version="1.1" id="Layer_1" xmlns="http://www.w3.org/2000/svg" xmlns:xlink="http://www.w3.org/1999/xlink" x="0px" y="0px"
	 viewBox="0 0 128.13 32.99" style="enable-background:new 0 0 128.13 32.99;" xml:space="preserve">
<style type="text/css">
	.st0{fill:#005FA8;}
	.st1{fill:#208FD1;}
	.st2{fill:#3FAEE4;}
	.st3{fill:#003871;}
</style>
<g id="Grupo_4884" transform="translate(-217.279 -240.842)">
	<path id="Caminho_983" class="st0" d="M219.51,257.36c0.05-3.8,1.92-7.34,5.02-9.52c1.83-1.2,3.96-1.88,6.14-1.97
		c4.31-0.04,8.32,0.04,12.63-0.01c1.63-0.02,2.38,1.16,3.06,2.27c0.53,0.86-0.38,0.91-0.96,0.92c-2.08,0.02-4.61,0-6.69,0
		c-2.73,0-6.23,0.04-8.96,0.04c-2.24,0-7.37,2.64-7.34,8.28c0.04,5.82,5.7,8.33,7.61,8.3c4.32,0.06,11.01-0.04,15.46-0.04
		c1.62,0,0.71,1.06,0.71,1.06s-1.18,2.09-2.97,2.09c-3.96,0-8.53,0.05-12.45,0C224.54,268.69,219.52,263.61,219.51,257.36"/>
	<path id="Caminho_984" class="st1" d="M223.55,257.34c0-2.75,1.24-4.86,3.16-6.1c1.12-0.72,1.73-1.09,5.06-1.09
		c2.83,0,11.65-0.02,14.48-0.02c1.46,0,1.76,0.65,2.17,1.64c0.31,0.75,0.49,1.31-0.31,1.31c-1.37,0-10.36-0.01-11.72-0.01
		c-1.79,0-3.82,0.01-5.62,0c-2.36-0.01-4.29,1.9-4.31,4.26c0.04,2.44,2.03,4.4,4.47,4.4c0.58,0,6.42-0.03,8.37,0
		c2.83-0.01,5.75-0.03,8.67-0.03c1.26,0,0.99,0.45,0.7,1.09c-0.36,0.81-0.75,1.77-1.4,1.77h-15.51c-3.34,0-4.24-0.86-5.07-1.31
		C225.87,262.79,223.55,260.7,223.55,257.34"/>
	<path id="Caminho_985" class="st2" d="M227.55,257.35c0-0.81,0.44-3.15,3.74-3.15c2.52,0,14.99-0.01,17.54,0
		c0.64,0,0.84,1.29,0.85,1.78c0.01,0.26-0.02,0.8-0.58,0.81c-1.22,0.02-9.32,0-10.53,0c-1.59,0-2.35-0.01-3.95,0
		c-0.83,0-2.77,0.01-3.55,0.01c-0.31-0.02-0.57,0.22-0.58,0.53s0.22,0.57,0.53,0.58c2.62,0,8.66,0,9.89,0.02c2.52-0.01,5.5,0,8.11,0
		c0.36,0,0.76,0.1,0.69,0.73c-0.05,0.45-0.18,1.93-0.78,1.93l-18.26,0C229.87,260.59,227.55,259.91,227.55,257.35"/>
	<path id="Caminho_986" class="st3" d="M234.48,241.42c3.45-0.03,6.81,1.15,9.48,3.33h-6.44c-5.27,0-3.23-0.05-7.26,0
		c-2.12,0.08-4.17,0.77-5.9,1.99c0.32-0.58,0.71-1.12,1.15-1.62C227.87,242.74,231.11,241.4,234.48,241.42"/>
	<path id="Caminho_987" class="st3" d="M234.43,273.25c3.45,0.03,6.81-1.14,9.48-3.33c0,0-2.4,0-2.77,0
		c-3.74,0-6.81-0.01-10.94-0.01c-2.12-0.05-4.18-0.75-5.9-1.99c0.32,0.58,0.71,1.12,1.15,1.62
		C227.83,271.93,231.06,273.27,234.43,273.25"/>
	<path id="Caminho_988" class="st3" d="M268.33,259.7l4.07-0.01c-0.51,4.27-3.76,6.23-8.27,6.23c-4.97,0-8.73-3.61-8.73-8.58
		s3.76-8.58,8.73-8.58c4.51,0,7.76,2.11,8.27,6.38l-3.95,0.07c-0.56-1.71-1.38-2.62-4.34-2.62c-2.99,0-4.56,2.01-4.56,4.75
		c0,2.74,1.48,4.75,4.56,4.75C266.28,262.09,267.62,261.44,268.33,259.7"/>
	<path id="Caminho_989" class="st3" d="M285.42,261.04l0.02,0.07h-8.08c0.3,1.03,1.1,1.82,2.55,1.82c0.68,0.05,1.34-0.26,1.73-0.82
		h3.74c-0.54,2.34-2.71,3.81-5.51,3.81c-3.72,0-6.19-2.48-6.19-5.94c0-3.43,2.41-5.91,6.03-5.91c3.29,0,5.79,2.27,5.79,5.68
		C285.5,260.18,285.47,260.61,285.42,261.04 M277.31,258.89h4.63c-0.11-1.13-1.1-1.98-2.24-1.89
		C278.54,256.94,277.52,257.75,277.31,258.89"/>
	<path id="Caminho_990" class="st3" d="M298.64,259.45v6.47h-3.81v-5.87c0-1.61-0.82-2.38-2.06-2.38c-0.7,0-1.45,0.4-2.1,1.14v7.1
		h-3.79v-11.33h3.79v0.77c0.88-0.73,1.99-1.13,3.13-1.12C296.68,254.24,298.64,256.23,298.64,259.45"/>
	<path id="Caminho_991" class="st3" d="M309.53,265.36c-1.1,0.39-2.27,0.58-3.43,0.56c-2.73,0-4.56-2.01-4.56-5.07v-3.36h-2.22
		v-3.25h2.22v-3.85h3.79v3.85h3.86v3.25h-3.86v3.25c0,1.14,0.65,1.71,1.78,1.71c0.68-0.03,1.35-0.13,2.01-0.28L309.53,265.36z"/>
	<path id="Caminho_992" class="st3" d="M318.64,258c-1.85,0.07-3.01,0.56-3.9,1.45v6.47h-3.79v-11.33h3.79v1.22
		c1.08-0.94,2.47-1.44,3.9-1.4L318.64,258z"/>
	<path id="Caminho_993" class="st3" d="M335.63,261.69c0.16,0.98,0.98,1.43,2.17,1.43c1.01,0,1.61-0.3,1.61-0.79
		c0-0.37-0.35-0.68-1.1-0.79l-2.29-0.4c-1.96-0.33-3.32-1.43-3.32-3.41c0-2.38,2.03-3.79,5.05-3.79c2.41,0,5.14,0.93,5.3,3.93h-3.36
		c-0.07-0.86-0.86-1.26-1.92-1.26c-0.98,0-1.43,0.37-1.43,0.82c0,0.37,0.28,0.72,1.17,0.89l2.13,0.35c2.13,0.4,3.53,1.43,3.53,3.43
		c0,2.62-2.36,3.83-5.3,3.83c-2.97,0-5.37-1.24-5.61-4.25L335.63,261.69z"/>
	<path id="Caminho_994" class="st3" d="M331.35,265.57h-3.79v-0.75c-0.88,0.71-1.98,1.1-3.11,1.1c-2.88,0-4.84-1.99-4.84-5.21v-6.47
		h3.79v5.89c0,1.61,0.84,2.38,2.08,2.38c0.7,0,1.43-0.4,2.08-1.12v-7.15h3.79L331.35,265.57z"/>
</g>
</svg>
